<svg width="53" height="53" viewBox="0 0 53 53" fill="none" xmlns="http://www.w3.org/2000/svg">
<path d="M29 50.5C43.6355 50.5 55.5 38.6355 55.5 24C55.5 9.36445 43.6355 -2.5 29 -2.5C14.3645 -2.5 2.5 9.36445 2.5 24C2.5 38.6355 14.3645 50.5 29 50.5Z" fill="#44444F" stroke="white" stroke-width="5"/>
<path fill-rule="evenodd" clip-rule="evenodd" d="M30.4115 24.0003L35.6886 29.2822C36.079 29.6729 36.0787 30.306 35.688 30.6964C35.2973 31.0867 34.6641 31.0864 34.2738 30.6957L28.9963 25.4135L23.7066 30.6953C23.3158 31.0856 22.6826 31.0851 22.2924 30.6943C21.9021 30.3035 21.9026 29.6703 22.2934 29.2801L27.5827 23.9986L22.2956 18.7068C21.9053 18.3161 21.9056 17.6829 22.2963 17.2926C22.687 16.9022 23.3202 16.9025 23.7105 17.2932L28.998 22.5855L34.2739 17.3173C34.6648 16.9271 35.2979 16.9276 35.6881 17.3184C36.0784 17.7092 36.0779 18.3424 35.6871 18.7326L30.4115 24.0003Z" fill="white"/>
</svg>
