<svg width="24" height="24" viewBox="0 0 24 24" fill="none" xmlns="http://www.w3.org/2000/svg">
<path fill-rule="evenodd" clip-rule="evenodd" d="M4 4H20C21.6569 4 23 5.34315 23 7V7.41843C23.0003 7.43317 23.0003 7.44792 23 7.46264V18C23 19.6569 21.6569 21 20 21H4C2.34315 21 1 19.6569 1 18V7C1 5.34315 2.34315 4 4 4ZM20.9971 6.92291C20.9577 6.40665 20.5263 6 20 6H4C3.47373 6 3.0424 6.40654 3.00294 6.9227L11.4267 12.8193C11.771 13.0603 12.2293 13.0603 12.5736 12.8193L20.9971 6.92291ZM3 9.36195L10.2798 14.4578C11.3127 15.1809 12.6876 15.1809 13.7205 14.4578L21 9.36217V18C21 18.5523 20.5523 19 20 19H4C3.44772 19 3 18.5523 3 18V9.36195Z" fill="#B5B5BE"/>
</svg>
