<svg width="16" height="16" viewBox="0 0 16 16" fill="none" xmlns="http://www.w3.org/2000/svg">
<path d="M15.0785 15.9572C15.5637 15.9572 15.9571 15.5637 15.9571 15.0784V0.915019C15.9571 0.429644 15.5637 0.0363159 15.0785 0.0363159H0.91508C0.429705 0.0363159 0.036377 0.429644 0.036377 0.915019V15.0784C0.036377 15.5637 0.429643 15.9572 0.91508 15.9572H15.0785Z" fill="white"/>
<path d="M11.0214 15.9572V9.79178H13.0908L13.4007 7.389H11.0214V5.85497C11.0214 5.15931 11.2146 4.68524 12.2121 4.68524L13.4845 4.68469V2.53562C13.2644 2.50634 12.5091 2.44092 11.6304 2.44092C9.79599 2.44092 8.54008 3.56067 8.54008 5.61701V7.389H6.46533V9.79178H8.54008V15.9572H11.0214Z" fill="#0062FF"/>
</svg>
